<?xml version="1.0" encoding="utf-8"?>
<!-- Generator: Adobe Illustrator 19.0.0, SVG Export Plug-In . SVG Version: 6.00 Build 0)  -->
<!DOCTYPE svg PUBLIC "-//W3C//DTD SVG 1.1//EN" "http://www.w3.org/Graphics/SVG/1.1/DTD/svg11.dtd">
<svg version="1.1" id="Spotify" xmlns="http://www.w3.org/2000/svg" xmlns:xlink="http://www.w3.org/1999/xlink" x="0px" y="0px"
	 viewBox="-114.2 288.3 34.3 34.2" style="enable-background:new -114.2 288.3 34.3 34.2;" xml:space="preserve">
<style type="text/css">
	.st0{fill:#7DAE21;}
</style>
<path id="WTF" class="st0" d="M-97,290.4c-8.3,0-15,6.7-15,15s6.7,15,15,15c8.3,0,15-6.7,15-15S-88.7,290.4-97,290.4z M-90.9,312.5
	c-0.2,0-0.4-0.1-0.6-0.2c-2.2-1.3-4.9-2-7.8-2c-1.6,0-3.2,0.2-4.7,0.5c-0.2,0.1-0.6,0.1-0.7,0.1c-0.6,0-0.9-0.5-0.9-0.9
	c0-0.6,0.4-0.9,0.8-1c1.9-0.4,3.7-0.7,5.6-0.7c3.3,0,6.2,0.8,8.7,2.3c0.4,0.2,0.6,0.4,0.6,1C-90,312.1-90.4,312.5-90.9,312.5z
	 M-89.3,308.6c-0.3,0-0.5-0.1-0.8-0.3c-2.4-1.4-5.8-2.4-9.5-2.4c-1.9,0-3.5,0.3-4.9,0.6c-0.3,0.1-0.5,0.2-0.7,0.2
	c-0.6,0-1.2-0.5-1.2-1.2c0-0.6,0.3-1.1,0.9-1.3c1.7-0.5,3.4-0.8,5.9-0.8c3.9,0,7.7,1,10.7,2.8c0.5,0.3,0.7,0.7,0.7,1.2
	C-88.1,308-88.6,308.6-89.3,308.6z M-87.4,303.9c-0.3,0-0.5-0.1-0.8-0.2c-2.7-1.6-6.9-2.5-11-2.5c-2,0-4.1,0.2-6,0.7
	c-0.2,0.1-0.5,0.2-0.8,0.2c-0.8,0-1.4-0.6-1.4-1.4c0-0.8,0.5-1.3,1.1-1.4c2.1-0.6,4.5-0.9,7.1-0.9c4.4,0,9,0.9,12.4,2.9
	c0.5,0.3,0.8,0.6,0.8,1.4C-86,303.4-86.7,303.9-87.4,303.9z"/>
</svg>
